<svg width="110" height="24" viewBox="0 0 110 24" fill="none" xmlns="http://www.w3.org/2000/svg">
<path d="M10.8217 23.3979L0.69812 1.96374H4.53812L10.8217 15.5783L17.3847 1.47501L23.9127 15.5783L30.2312 1.96374H34.0712L23.9127 23.3979L17.3847 9.29468L10.8217 23.3979ZM39.6046 22.9092C37.3705 22.9092 35.5318 22.2343 34.089 20.8844C32.6693 19.5114 31.9596 17.859 31.9596 15.9273C31.9596 13.9958 32.6693 12.3551 34.089 11.0052C35.5318 9.63212 37.3705 8.94556 39.6046 8.94556C41.1173 8.94556 42.5253 9.30628 43.8286 10.0277V8.94556H47.3196V22.9092H43.8286V21.827C42.5253 22.5485 41.1173 22.9092 39.6046 22.9092ZM36.6025 13.4488C35.8345 14.1237 35.4505 14.9499 35.4505 15.9273C35.4505 16.9048 35.8345 17.7311 36.6025 18.4059C37.4403 19.0808 38.4409 19.4183 39.6046 19.4183C40.7682 19.4183 41.7573 19.0808 42.5719 18.4059C43.4097 17.7077 43.8286 16.8816 43.8286 15.9273C43.8286 14.9732 43.4097 14.1587 42.5719 13.4837C41.7573 12.7855 40.7682 12.4364 39.6046 12.4364C38.4409 12.4364 37.4403 12.774 36.6025 13.4488ZM53.6032 22.9092H50.1123V0.567383H53.6032V22.9092ZM59.8759 22.9092H56.385V8.94556H59.8759V10.0277C61.1559 9.30628 62.5522 8.94556 64.065 8.94556C66.3224 8.94556 68.1609 9.63212 69.5806 11.0052C71.0235 12.3551 71.745 13.9958 71.745 15.9273V22.9092H68.2541V16.032C68.2541 15.0314 67.8467 14.1819 67.0323 13.4837C66.2177 12.7855 65.2285 12.4364 64.065 12.4364C62.9013 12.4364 61.9122 12.7855 61.0977 13.4837C60.2832 14.1819 59.8759 15.0314 59.8759 16.032V22.9092ZM74.5213 15.9273V8.94556H78.0123V15.8226C78.0123 16.8234 78.4195 17.6728 79.2341 18.371C80.0488 19.0692 81.0376 19.4183 82.2016 19.4183C83.3648 19.4183 84.3544 19.0692 85.1688 18.371C85.9832 17.6728 86.3904 16.8234 86.3904 15.8226V8.94556H89.8816V22.9092H86.3904V21.827C85.1104 22.5485 83.7144 22.9092 82.2016 22.9092C79.9438 22.9092 78.0937 22.2343 76.6508 20.8844C75.2311 19.5114 74.5213 17.859 74.5213 15.9273ZM94.752 12.4364H91.9592V8.94556H94.752V4.05829H98.2432V8.94556H102.432V12.4364H98.2432V15.9273C98.2432 16.8816 98.6152 17.7077 99.36 18.4059C100.105 19.0808 101.013 19.4183 102.083 19.4183H102.432V22.9092H102.083C100.058 22.9092 98.3248 22.2459 96.8816 20.9193C95.4624 19.5696 94.752 17.9405 94.752 16.032V12.4364Z" fill="white"/>
<path d="M105.133 22.9793C104.737 22.5837 104.539 22.0949 104.539 21.513C104.539 20.9313 104.737 20.4425 105.133 20.0469C105.551 19.628 106.052 19.4185 106.634 19.4185C107.215 19.4185 107.704 19.628 108.1 20.0469C108.518 20.4425 108.728 20.9313 108.728 21.513C108.728 22.0949 108.518 22.5837 108.1 22.9793C107.704 23.3981 107.215 23.6076 106.634 23.6076C106.052 23.6076 105.551 23.3981 105.133 22.9793Z" fill="#F561AB"/>
</svg>
